Coordinates
version=1
nRows=14
nColumns=40
inDegrees=yes
endheader
time	pelvis_tilt	pelvis_list	pelvis_rotation	pelvis_tx	pelvis_ty	pelvis_tz	hip_flexion_r	hip_adduction_r	hip_rotation_r	knee_angle_r	knee_angle_r_beta	ankle_angle_r	subtalar_angle_r	mtp_angle_r	hip_flexion_l	hip_adduction_l	hip_rotation_l	knee_angle_l	knee_angle_l_beta	ankle_angle_l	subtalar_angle_l	mtp_angle_l	lumbar_extension	lumbar_bending	lumbar_rotation	arm_flex_r	arm_add_r	arm_rot_r	elbow_flex_r	pro_sup_r	wrist_flex_r	wrist_dev_r	arm_flex_l	arm_add_l	arm_rot_l	elbow_flex_l	pro_sup_l	wrist_flex_l	wrist_dev_l
1760625230.05629611	      4.92803584	     -1.93473449	      0.23065378	      0.16820214	      0.87478607	      0.00106770	     80.00000000	     -7.00000000	      0.00000000	     80.00000000	      1.39626340	      0.00000000	      0.00000000	      0.00000000	     80.00000000	     -7.00000000	      0.00000000	     80.00000000	      1.39626340	      0.00000000	      0.00000000	      0.00000000	    -12.41708440	     -0.72768931	      0.96730690	      5.02218949	     -5.01036786	      8.91207878	      0.00000000	      0.00000000	     -9.94388056	    -16.38347702	      6.22871078	     -5.78219534	     13.82680020	      0.00000000	      7.83695029	     -7.18067070	     -3.10431314
1760625230.06629610	      4.93613986	     -1.93202108	      0.23685278	      0.16821534	      0.87474939	      0.00100776	     80.00000000	     -7.00000000	      0.00000000	     80.00000000	      1.39626340	      0.00000000	      0.00000000	      0.00000000	     80.00000000	     -7.00000000	      0.00000000	     80.00000000	      1.39626340	      0.00000000	      0.00000000	      0.00000000	    -12.40884758	     -0.72637649	      0.97485438	      5.03501609	     -5.00624558	      8.91288326	      0.00000000	      0.00000000	     -9.94354424	    -16.38312924	      6.22451433	     -5.77761087	     13.82729167	      0.00000000	      7.83628805	     -7.17963954	     -3.10401594
1760625230.07629609	      4.93889112	     -1.92688590	      0.24453725	      0.16818380	      0.87480002	      0.00094000	     80.00000000	     -7.00000000	      0.00000000	     80.00000000	      1.39626340	      0.00000000	      0.00000000	      0.00000000	     80.00000000	     -7.00000000	      0.00000000	     80.00000000	      1.39626340	      0.00000000	      0.00000000	      0.00000000	    -12.40547293	     -0.72294865	      0.98547008	      5.04937325	     -5.01129718	      8.91414026	      0.00000000	      0.00000000	     -9.94311195	    -16.38283569	      6.21033184	     -5.78045048	     13.82749308	      0.00000000	      7.83522276	     -7.17956607	     -3.10394300
1760625230.08629608	      4.94507166	     -1.92456541	      0.24897447	      0.16817601	      0.87476350	      0.00087500	     80.00000000	     -7.00000000	      0.00000000	     80.00000000	      1.39626340	      0.00000000	      0.00000000	      0.00000000	     80.00000000	     -7.00000000	      0.00000000	     80.00000000	      1.39626340	      0.00000000	      0.00000000	      0.00000000	    -12.39922407	     -0.72163618	      0.99354313	      5.06507231	     -5.02019825	      8.91582292	      0.00000000	      0.00000000	     -9.94254952	    -16.38254533	      6.19531145	     -5.78199954	     13.82774636	      0.00000000	      7.83398731	     -7.17947521	     -3.10380638
1760625230.09629607	      4.95314144	     -1.92561125	      0.24971881	      0.16817839	      0.87481102	      0.00084805	     80.00000000	     -7.00000000	      0.00000000	     80.00000000	      1.39626340	      0.00000000	      0.00000000	      0.00000000	     80.00000000	     -7.00000000	      0.00000000	     80.00000000	      1.39626340	      0.00000000	      0.00000000	      0.00000000	    -12.39036256	     -0.72341272	      0.99802401	      5.07927196	     -5.03558608	      8.91821964	      0.00000000	      0.00000000	     -9.94184802	    -16.38217573	      6.18258355	     -5.78251792	     13.82847935	      0.00000000	      7.83293156	     -7.17828857	     -3.10335646
1760625230.10629606	      4.95852720	     -1.92145845	      0.24297341	      0.16821619	      0.87478158	      0.00074355	     80.00000000	     -7.00000000	      0.00000000	     80.00000000	      1.39626340	      0.00000000	      0.00000000	      0.00000000	     80.00000000	     -7.00000000	      0.00000000	     80.00000000	      1.39626340	      0.00000000	      0.00000000	      0.00000000	    -12.38290582	     -0.71885163	      1.00243506	      5.10106933	     -5.06662529	      8.92328709	      0.00000000	      0.00000000	     -9.94090422	    -16.38164387	      6.15681434	     -5.79032646	     13.82996857	      0.00000000	      7.83098872	     -7.17661375	     -3.10318190
1760625230.11629605	      4.95945848	     -1.92133763	      0.24359864	      0.16814167	      0.87483969	      0.00070468	     80.00000000	     -7.00000000	      0.00000000	     80.00000000	      1.39626340	      0.00000000	      0.00000000	      0.00000000	     80.00000000	     -7.00000000	      0.00000000	     80.00000000	      1.39626340	      0.00000000	      0.00000000	      0.00000000	    -12.38171882	     -0.71878692	      1.00388043	      5.10285547	     -5.06883652	      8.92363908	      0.00000000	      0.00000000	     -9.94084754	    -16.38163290	      6.15379266	     -5.79190025	     13.82998931	      0.00000000	      7.83085645	     -7.17658963	     -3.10318661
1760625230.12629604	      4.96374445	     -1.91871970	      0.18178730	      0.16822599	      0.87483831	      0.00057263	     80.00000000	     -7.00000000	      0.00000000	     80.00000000	      1.39626340	      0.00000000	      0.00000000	      0.00000000	     80.00000000	     -7.00000000	      0.00000000	     80.00000000	      1.39626340	      0.00000000	      0.00000000	      0.00000000	    -12.36386739	     -0.70550009	      0.98965532	      5.15573265	     -5.14589260	      8.93869584	      0.00000000	      0.00000000	     -9.93742546	    -16.37800709	      6.05638316	     -5.78631976	     13.83459391	      0.00000000	      7.82223468	     -7.17422948	     -3.10343534
1760625230.13629603	      4.96637460	     -1.92221061	      0.18789557	      0.16820324	      0.87489742	      0.00057671	     80.00000000	     -7.00000000	      0.00000000	     80.00000000	      1.39626340	      0.00000000	      0.00000000	      0.00000000	     80.00000000	     -7.00000000	      0.00000000	     80.00000000	      1.39626340	      0.00000000	      0.00000000	      0.00000000	    -12.35806085	     -0.70925142	      0.99847881	      5.16740757	     -5.16538919	      8.94144341	      0.00000000	      0.00000000	     -9.93710162	    -16.37788281	      6.04519776	     -5.80542433	     13.83591063	      0.00000000	      7.82159439	     -7.17404471	     -3.10404102
1760625230.14629602	      4.97045424	     -1.92254558	      0.19456251	      0.16810376	      0.87494714	      0.00057302	     80.00000000	     -7.00000000	      0.00000000	     80.00000000	      1.39626340	      0.00000000	      0.00000000	      0.00000000	     80.00000000	     -7.00000000	      0.00000000	     80.00000000	      1.39626340	      0.00000000	      0.00000000	      0.00000000	    -12.35171048	     -0.71076635	      1.00802540	      5.17961288	     -5.18322381	      8.94407814	      0.00000000	      0.00000000	     -9.93684318	    -16.37797389	      6.03682239	     -5.82446480	     13.83710694	      0.00000000	      7.82118798	     -7.17404416	     -3.10456610
1760625230.15629601	      4.96851120	     -1.92736882	      0.19283519	      0.16811494	      0.87490477	      0.00050751	     80.00000000	     -7.00000000	      0.00000000	     80.00000000	      1.39626340	      0.00000000	      0.00000000	      0.00000000	     80.00000000	     -7.00000000	      0.00000000	     80.00000000	      1.39626340	      0.00000000	      0.00000000	      0.00000000	    -12.35020143	     -0.71511550	      1.01270232	      5.18874403	     -5.22380452	      8.94804425	      0.00000000	      0.00000000	     -9.93661606	    -16.37835621	      6.01106764	     -5.85227469	     13.83809211	      0.00000000	      7.81978746	     -7.17504597	     -3.10509330
1760625230.16629601	      4.97497223	     -1.93090463	      0.18711308	      0.16810883	      0.87489667	      0.00050784	     80.00000000	     -7.00000000	      0.00000000	     80.00000000	      1.39626340	      0.00000000	      0.00000000	      0.00000000	     80.00000000	     -7.00000000	      0.00000000	     80.00000000	      1.39626340	      0.00000000	      0.00000000	      0.00000000	    -12.33957743	     -0.71848013	      1.01435219	      5.19879152	     -5.26225845	      8.95246002	      0.00000000	      0.00000000	     -9.93636561	    -16.37854771	      5.98645306	     -5.87649629	     13.83922502	      0.00000000	      7.81801675	     -7.17594962	     -3.10551883
1760625230.17629600	      4.97487028	     -1.93288148	      0.18737194	      0.16803563	      0.87500396	      0.00050895	     80.00000000	     -7.00000000	      0.00000000	     80.00000000	      1.39626340	      0.00000000	      0.00000000	      0.00000000	     80.00000000	     -7.00000000	      0.00000000	     80.00000000	      1.39626340	      0.00000000	      0.00000000	      0.00000000	    -12.33898987	     -0.72056634	      1.01465714	      5.19858586	     -5.26641346	      8.95281883	      0.00000000	      0.00000000	     -9.93636977	    -16.37859743	      5.98350282	     -5.87859560	     13.83923024	      0.00000000	      7.81786683	     -7.17603182	     -3.10553870
1760625230.18629599	      4.97875900	     -1.93877501	      0.18396704	      0.16806082	      0.87502128	      0.00050418	     80.00000000	     -7.00000000	      0.00000000	     80.00000000	      1.39626340	      0.00000000	      0.00000000	      0.00000000	     80.00000000	     -7.00000000	      0.00000000	     80.00000000	      1.39626340	      0.00000000	      0.00000000	      0.00000000	    -12.33115149	     -0.72768996	      1.01775205	      5.20249072	     -5.32397656	      8.95839348	      0.00000000	      0.00000000	     -9.93617524	    -16.37920978	      5.94856609	     -5.92010252	     13.83958270	      0.00000000	      7.81569122	     -7.17724116	     -3.10638671
